<svg xmlns="http://www.w3.org/2000/svg" viewBox="0 0 190.391 182.995">
                            <defs>
                                <style>
                                    .cls-1 {
                                        fill: none;
                                        stroke: #2e3192;
                                        stroke-linecap: round;
                                        stroke-linejoin: round;
                                        stroke-width: 7px;
                                    }
                                </style>
                            </defs>
                            <g id="Layer_2" data-name="Layer 2">
                                <g id="Isolation_Mode" data-name="Isolation Mode">
                                    <path class="cls-1"
                                        d="M51.215,156.238,32.058,176.464a9.705,9.705,0,0,1-13.719.373L6.7,165.816a10.255,10.255,0,0,1-.393-14.5L142.145,7.9a14.087,14.087,0,0,1,19.916-.54l13.232,12.532c3.47,3.287,4.138,8.421-2.312,8.405a11.759,11.759,0,0,0-8.486,3.791L86.418,114.523a5.41,5.41,0,0,0,.258,7.7l1.814,1.675a18.28,18.28,0,0,0-12.006,5.665l-8.9,9.4">
                                    </path>
                                    <line class="cls-1" x1="108.598" y1="124.289" x2="88.49" y2="123.893"></line>
                                    <path class="cls-1" d="M176.487,27.488,180.7,45.222a16.008,16.008,0,0,1,.46,3.116">
                                    </path>
                                    <line class="cls-1" x1="175.556" y1="61.475" x2="178.144" y2="63.926"></line>
                                    <line class="cls-1" x1="166.397" y1="47.383" x2="173.646" y2="54.249"></line>
                                    <line class="cls-1" x1="160.364" y1="53.753" x2="167.613" y2="60.619"></line>
                                    <line class="cls-1" x1="154.33" y1="60.124" x2="161.579" y2="66.99"></line>
                                    <line class="cls-1" x1="148.296" y1="66.494" x2="155.546" y2="73.36"></line>
                                    <line class="cls-1" x1="142.263" y1="72.865" x2="149.512" y2="79.73"></line>
                                    <line class="cls-1" x1="136.229" y1="79.235" x2="143.478" y2="86.101"></line>
                                    <line class="cls-1" x1="130.196" y1="85.605" x2="137.445" y2="92.471"></line>
                                    <line class="cls-1" x1="124.162" y1="91.976" x2="131.411" y2="98.842"></line>
                                    <line class="cls-1" x1="118.128" y1="98.346" x2="125.378" y2="105.212"></line>
                                    <line class="cls-1" x1="112.095" y1="104.717" x2="119.344" y2="111.582"></line>
                                    <line class="cls-1" x1="106.061" y1="111.087" x2="113.31" y2="117.953"></line>
                                    <line class="cls-1" x1="169.453" y1="67.919" x2="172.041" y2="70.369"></line>
                                    <line class="cls-1" x1="163.35" y1="74.362" x2="165.938" y2="76.813"></line>
                                    <line class="cls-1" x1="157.247" y1="80.806" x2="159.835" y2="83.257"></line>
                                    <line class="cls-1" x1="151.144" y1="87.249" x2="153.732" y2="89.7"></line>
                                    <line class="cls-1" x1="145.041" y1="93.693" x2="147.629" y2="96.144"></line>
                                    <line class="cls-1" x1="138.938" y1="100.137" x2="141.526" y2="102.588"></line>
                                    <line class="cls-1" x1="132.835" y1="106.58" x2="135.423" y2="109.031"></line>
                                    <line class="cls-1" x1="126.732" y1="113.024" x2="129.32" y2="115.475"></line>
                                    <line class="cls-1" x1="120.629" y1="119.468" x2="123.217" y2="121.919"></line>
                                    <path class="cls-1"
                                        d="M58.247,135.9H60.99a3.664,3.664,0,0,1,3.664,3.664v16.474a3.663,3.663,0,0,1-3.663,3.663H58.247a3.663,3.663,0,0,1-3.663-3.663V139.568a3.664,3.664,0,0,1,3.664-3.664Z"
                                        transform="translate(117.975 -0.503) rotate(43.446)"></path>
                                    <path class="cls-1"
                                        d="M186.891,105.09s-.272.643-.833,1.679a44.842,44.842,0,0,1-2.519,4.14,56.7,56.7,0,0,1-3.426,4.544,6.6,6.6,0,0,0-.134,8.262c1.266,1.631,2.385,3.217,3.3,4.67a44.573,44.573,0,0,1,2.376,4.205c.528,1.076.779,1.727.779,1.727s-.643-.271-1.7-.833a44.5,44.5,0,0,1-4.128-2.507,57.317,57.317,0,0,1-4.633-3.5,6.575,6.575,0,0,0-8.257-.143c-1.665,1.3-3.445,2.645-4.585,3.359a41.375,41.375,0,0,1-4.218,2.386c-1.053.529-1.716.791-1.716.791s.272-.666.833-1.7a41.423,41.423,0,0,1,2.519-4.14c.953-1.421,2.119-2.976,3.438-4.571a6.6,6.6,0,0,0,.128-8.252c-1.263-1.628-2.379-3.21-3.291-4.663a41.475,41.475,0,0,1-2.387-4.2c-.528-1.076-.779-1.727-.779-1.727s.643.271,1.7.833a41.281,41.281,0,0,1,4.117,2.518c1.448.974,3.031,2.163,4.652,3.508a6.575,6.575,0,0,0,8.256.129c1.662-1.3,3.438-2.648,4.579-3.361a45.026,45.026,0,0,1,4.217-2.387A17.444,17.444,0,0,1,186.891,105.09Z">
                                    </path>
                                </g>
                            </g>
                        </svg>