<svg xmlns="http://www.w3.org/2000/svg" viewBox="0 0 141.191 197.392"><defs><style>.cls-1{fill:none;stroke:#2e3192;stroke-linecap:round;stroke-linejoin:round;stroke-width:7px;}</style></defs><g id="Layer_2" data-name="Layer 2"><g id="Isolation_Mode" data-name="Isolation Mode"><path class="cls-1" d="M130.94,82.571V93.857c-.355,9.212-.252,16.6-.118,21.461.355,12.426,1.333,19.846-2.844,22.586a7.6,7.6,0,0,1-5.287.889c-4.725,28.156-22.35,49-44.8,54.178a39.15,39.15,0,0,1-20.409-.977c-38.494-12.056-41.189-53.2-41.189-53.2-1.7.5-4.088.889-6.043-.237-4.014-2.325-3.6-9.479-3.258-24.912.251-10.8.37-16.2.3-19.15"></path><path class="cls-1" d="M136.319,66.081C142.839,29.452,124,3.5,124,3.5c-.408,7.072-3.171,8.552-7.4,9.363a41.61,41.61,0,0,1-16.8-.451c-7.978-1.766-35.747-8.48-55.531-4.241C42.963,8.451,17.883,14.2,8,34.784,2.977,45.246,3.371,56.43,3.637,63.98"></path><path class="cls-1" d="M7.284,94.494a18.857,18.857,0,0,0,10-4.073C25.827,83.208,21.413,71.3,28.76,62.65c6.131-7.227,16.662-7.657,19.609-7.775,17.062-.682,20.454,13.655,45.544,25.682,12.6,6.043,32.569,2.829,37.027,2.014"></path><path class="cls-1" d="M7.284,77.809s4.888,2.037,6.183-9.071S25.687,39.116,52.9,42.078c0,0,15.736,1.3,28.7,16.57"></path><path class="cls-1" d="M123.169,29.333c4.779,11.383,7.488,32.774-9.369,35.317a20.671,20.671,0,0,1-14.347-3.659C93.107,56.731,88.845,49.5,83.862,43.817,75.748,34.564,65.415,28.968,52.9,29.208"></path><path class="cls-1" d="M112.33,31.155c1.6,3.47,3.086,7.452,2.7,11.34-.454,4.591-4.377,8.157-9.033,6.116-3.881-1.7-6.891-5.168-9.071-8.7C94.2,35.48,90.842,30.818,86.6,27.73"></path></g></g></svg>