<svg xmlns="http://www.w3.org/2000/svg" viewBox="0 0 183.948 189.28"><defs><style>.cls-1{fill:none;stroke:#2e3192;stroke-linecap:round;stroke-linejoin:round;stroke-width:7px;}</style></defs><g id="Layer_2" data-name="Layer 2"><g id="Isolation_Mode" data-name="Isolation Mode"><path class="cls-1" d="M94.383,144.35a48.953,48.953,0,0,1-52.839,41.216A84.117,84.117,0,0,1,27.382,183.1a6.513,6.513,0,0,1-4.2-9.184,3.875,3.875,0,0,1,.807-1.062c3.724-3.331,4.741-7.933,3.1-10.787a6.532,6.532,0,0,0-3.416-2.707,4.939,4.939,0,0,1-3.131-5.739c.007-.026.015-.053.022-.08a6.593,6.593,0,0,1,5.355-4.618l-2.774-.778a4.932,4.932,0,0,1-3.659-4.41,5.115,5.115,0,0,1,.878-3.389,8.427,8.427,0,0,0,1.481-4.761l.293-9.347H3.5c3.708-7.729,8.514-15.658,12.783-23.489a43.721,43.721,0,0,0,5.211-17.78l.01-.142a24.567,24.567,0,0,0-.159-5.041C12.62,14.968,99.732-15.239,146.951,15.727,169.934,30.8,184.173,58.679,179.593,86.25c-2.94,17.7-12.71,33.105-19.291,49.534-2.558,6.389-4.116,34.418-4.778,48.262"></path><line class="cls-1" x1="25.916" y1="148.922" x2="35.638" y2="148.922"></line><path class="cls-1" d="M160.494,135.325a36.789,36.789,0,0,1-20.171.847c-13.307-3.343-20.324-11.8-22.59-24.085-1.33-7.149-4.135-14.265-12.119-16.97A18.786,18.786,0,0,0,91.25,96.4l-.066.033C85.3,99.549,77.756,96.557,76.37,90.4a72.282,72.282,0,0,1-.616-29.485c1.617-8.744,11.548-13.858,20.577-10.7a113.35,113.35,0,0,0,54.231,5.433,105.835,105.835,0,0,0,24.229-6.709"></path><circle class="cls-1" cx="40.424" cy="41.661" r="1.237"></circle><circle class="cls-1" cx="51.239" cy="31.167" r="1.237"></circle><circle class="cls-1" cx="64.474" cy="22.781" r="1.237"></circle><circle class="cls-1" cx="75.768" cy="33.309" r="1.237"></circle><path class="cls-1" d="M61.825,41.661a1.238,1.238,0,1,1-1.237-1.238A1.237,1.237,0,0,1,61.825,41.661Z"></path><circle class="cls-1" cx="79.926" cy="18.152" r="1.237"></circle><circle class="cls-1" cx="96.056" cy="16.044" r="1.237"></circle><circle class="cls-1" cx="94.819" cy="29.929" r="1.237"></circle><circle class="cls-1" cx="112.92" cy="16.503" r="1.237"></circle><path class="cls-1" d="M114.157,30.834A1.237,1.237,0,1,1,112.92,29.6,1.237,1.237,0,0,1,114.157,30.834Z"></path><circle class="cls-1" cx="128.363" cy="19.756" r="1.237"></circle><circle class="cls-1" cx="129.6" cy="35.438" r="1.237"></circle><circle class="cls-1" cx="143.485" cy="27.546" r="1.237"></circle><path class="cls-1" d="M156.775,39.186a1.238,1.238,0,1,1-1.238-1.237A1.237,1.237,0,0,1,156.775,39.186Z"></path></g></g></svg>