<svg xmlns="http://www.w3.org/2000/svg" viewBox="0 0 204.642 203.412"><defs><style>.cls-1{fill:none;stroke:#2e3192;stroke-linecap:round;stroke-linejoin:round;stroke-width:7px;}</style></defs><g id="Layer_2" data-name="Layer 2"><g id="Isolation_Mode" data-name="Isolation Mode"><path class="cls-1" d="M56.626,89.791a50.31,50.31,0,0,0,.009,17.746c1.127,6.188,3.969,10.8,6.7,16.343,1.793,3.632,4.475,8.246,4.475,12.444a15.954,15.954,0,0,1-9.466,14.569,10.052,10.052,0,0,0,.065-1.234c0-5.4-2.93-9.763-6.535-9.763-3.622,0-6.536,4.363-6.536,9.763a9.854,9.854,0,0,0,.066,1.234,15.95,15.95,0,0,1-9.483-14.569c0-2.729,1.443-5.7,2.478-8.13,2.155-5.066,5.364-9.619,7.4-14.742,2.3-5.8,1.655-11.4,1.567-17.487a214.948,214.948,0,0,1,5.917-53.046"></path><path class="cls-1" d="M164.17,199.912H22.393A18.893,18.893,0,0,1,3.5,181.019V122.158A11.848,11.848,0,0,1,15.347,110.31H28.405a4.787,4.787,0,0,1,4.237,7c-3.793,7.34-6.6,14.345-6.6,19.011a25.824,25.824,0,1,0,51.648,0c0-4.664-2.79-11.673-6.585-19.008a4.787,4.787,0,0,1,4.235-7h40.421a4.779,4.779,0,0,1,4.244,6.988c-5.148,9.773-9.023,19.194-9.023,25.394a32.883,32.883,0,1,0,65.765,0c0-6.2-3.863-15.635-9.01-25.391a4.779,4.779,0,0,1,4.243-6.991H189.3a11.848,11.848,0,0,1,11.847,11.848v58.861a18.893,18.893,0,0,1-18.893,18.893H164.17"></path><path class="cls-1" d="M149.924,83.442a64.089,64.089,0,0,0,.012,22.6c1.436,7.88,5.055,13.758,8.536,20.812,2.282,4.626,5.7,10.5,5.7,15.847a20.316,20.316,0,0,1-12.055,18.554,12.687,12.687,0,0,0,.084-1.572c0-6.877-3.732-12.432-8.323-12.432-4.613,0-8.324,5.555-8.324,12.432a12.492,12.492,0,0,0,.085,1.572A20.312,20.312,0,0,1,123.561,142.7c0-3.474,1.837-7.254,3.155-10.352,2.744-6.452,6.83-12.25,9.42-18.774,4.231-10.662,2.683-22.4,2.664-33.568-.041-25.532,4.675-51.495,11.654-76.5"></path></g></g></svg>